<svg width="49" height="33" viewBox="0 0 49 33" fill="none" xmlns="http://www.w3.org/2000/svg">
<path d="M33.8963 15.2195C35.5756 14.2002 37.5408 13.7547 39.4955 13.9501C41.4503 14.1455 43.2884 14.9712 44.7327 16.3028C46.1771 17.6343 47.1492 19.3994 47.5026 21.3318C47.8559 23.2642 47.5713 25.2591 46.6917 27.0156C45.812 28.7721 44.385 30.1949 42.6259 31.0694C40.8669 31.9439 38.8711 32.2227 36.9398 31.8637C35.0084 31.5046 33.2462 30.5273 31.9189 29.0791C30.5916 27.6308 29.7712 25.7903 29.5816 23.835C28.9047 19.7483 28.7624 14.8611 30.5398 10.5066C32.4463 5.84186 36.4301 2.1052 43.376 0.556908C43.9542 0.446218 44.5527 0.565065 45.0447 0.888252C45.5367 1.21144 45.8834 1.71355 46.0114 2.28811C46.1394 2.86266 46.0386 3.46449 45.7304 3.96596C45.4221 4.46743 44.9306 4.82911 44.3602 4.97432C38.7413 6.22698 36.0328 9.04087 34.7313 12.219C34.3454 13.1677 34.0705 14.1747 33.8963 15.2195V15.2195Z" fill="#282C30"/>
<path d="M5.28469 15.5618C6.96402 14.5425 8.92927 14.097 10.884 14.2924C12.8387 14.4878 14.6768 15.3135 16.1212 16.6451C17.5655 17.9766 18.5377 19.7417 18.891 21.6741C19.2444 23.6065 18.9597 25.6014 18.0801 27.3579C17.2004 29.1144 15.7734 30.5372 14.0144 31.4117C12.2553 32.2862 10.2596 32.565 8.3282 32.206C6.39684 31.8469 4.6346 30.8696 3.30731 29.4214C1.98002 27.9731 1.15967 26.1326 0.970002 24.1773C0.293144 20.0906 0.150852 15.2034 1.92819 10.8489C3.83472 6.18415 7.81854 2.44748 14.7645 0.899193C15.3426 0.788503 15.9411 0.90735 16.4331 1.23054C16.9251 1.55372 17.2719 2.05583 17.3999 2.63039C17.5279 3.20495 17.4271 3.80677 17.1188 4.30824C16.8105 4.80972 16.3191 5.1714 15.7486 5.3166C10.1297 6.56926 7.42123 9.38315 6.11976 12.5613C5.7338 13.5099 5.45897 14.517 5.28469 15.5618V15.5618Z" fill="#282C30"/>
</svg>
