<svg width="87" height="19" viewBox="0 0 87 19" fill="none" xmlns="http://www.w3.org/2000/svg">
<path d="M12.5195 15.8438L14.8867 15.6211C15.582 15.6211 15.9297 15.8086 15.9297 16.1836C15.9297 16.5508 15.7031 16.8711 15.25 17.1445C14.1406 17.8086 12.9531 18.2578 11.6875 18.4922C10.4219 18.7266 9.1875 18.8438 7.98438 18.8438C6.78906 18.8438 5.93359 18.8203 5.41797 18.7734C4.91016 18.7344 4.40234 18.6484 3.89453 18.5156C3.39453 18.3828 2.98438 18.2031 2.66406 17.9766C1.96875 17.4766 1.62109 16.707 1.62109 15.668C1.62109 13.8633 2.71094 11.5938 4.89062 8.85938C6.53906 6.79688 7.9375 5.59375 9.08594 5.25C9.6875 5.07031 10.3867 4.98047 11.1836 4.98047C11.9883 4.98047 12.3906 5.28516 12.3906 5.89453C12.3906 6.09766 12.332 6.33984 12.2148 6.62109C11.7695 7.53516 11.3789 8.61719 11.043 9.86719C10.707 11.1094 10.5391 12.2266 10.5391 13.2188C10.5391 14.9688 11.1992 15.8438 12.5195 15.8438ZM0.625 6.19922C0.226562 6.19922 0.0273438 5.96875 0.0273438 5.50781C0.0273438 5 0.179688 4.30469 0.484375 3.42188C1.07812 1.74219 1.71484 0.808594 2.39453 0.621094C2.58203 0.550781 3.14844 0.515625 4.09375 0.515625L12.0156 0.703125C12.4062 0.703125 13.543 0.585938 15.4258 0.351562C17.3164 0.117188 18.3086 0 18.4023 0C19.4102 0 19.9141 0.34375 19.9141 1.03125C19.9141 1.33594 19.8047 1.82031 19.5859 2.48438C19.375 3.14062 19.0938 3.76172 18.7422 4.34766C18.3906 4.93359 18.0664 5.22656 17.7695 5.22656C17.5898 5.22656 17.1836 5.08203 16.5508 4.79297C14.6367 3.91797 13.0938 3.48047 11.9219 3.48047C10.75 3.48047 9.39453 3.59375 7.85547 3.82031C6.31641 4.04688 5.17188 4.31641 4.42188 4.62891C3.67188 4.93359 3.01562 5.21484 2.45312 5.47266C1.40625 5.95703 0.796875 6.19922 0.625 6.19922Z" fill="#F9F9F9"/>
<path d="M27.2383 15.8672C28.707 15.8672 29.9336 14.7422 30.918 12.4922C31.3711 11.4609 31.5977 10.625 31.5977 9.98438C31.5977 9.34375 31.4883 8.90234 31.2695 8.66016C31.0586 8.41797 30.6367 8.29688 30.0039 8.29688C29.3789 8.29688 28.6992 8.58984 27.9648 9.17578C27.2383 9.75391 26.6523 10.4844 26.207 11.3672C25.7617 12.25 25.5391 13.0469 25.5391 13.7578C25.5391 14.4609 25.6953 14.9883 26.0078 15.3398C26.3203 15.6914 26.7305 15.8672 27.2383 15.8672ZM33.332 5.94141L38.6992 6.1875C38.9023 6.1875 39.0547 6.25 39.1562 6.375C39.2578 6.49219 39.3086 6.625 39.3086 6.77344C39.3086 7.34375 39.0703 8.25391 38.5938 9.50391C38.125 10.7461 37.6523 11.9805 37.1758 13.207C36.707 14.4258 36.4727 15.2344 36.4727 15.6328C36.4727 16.0234 36.5312 16.2734 36.6484 16.3828C36.7734 16.4922 37.0078 16.5469 37.3516 16.5469C37.6953 16.5469 38.3203 16.3828 39.2266 16.0547C40.1406 15.7188 40.7578 15.4648 41.0781 15.293C41.4062 15.1211 41.6562 15.0352 41.8281 15.0352C42.1328 15.0352 42.2852 15.1719 42.2852 15.4453C42.2852 16.0234 41.1133 16.7812 38.7695 17.7188C37.9805 18.0391 37.0273 18.3047 35.9102 18.5156C34.8008 18.7344 33.6719 18.8438 32.5234 18.8438C30.6094 18.8438 29.457 18.2344 29.0664 17.0156C27.8477 18.2344 26.207 18.8438 24.1445 18.8438C22.7305 18.8438 21.5352 18.5039 20.5586 17.8242C19.4961 17.082 18.9648 15.9141 18.9648 14.3203C18.9648 12.6406 19.4609 11.0938 20.4531 9.67969C21.5391 8.10938 22.9922 7.02734 24.8125 6.43359C25.8203 6.10547 26.9023 5.94141 28.0586 5.94141C29.832 5.94141 31.2109 6.37891 32.1953 7.25391C32.2031 7.20703 32.207 7.13281 32.207 7.03125L32.1953 6.52734C32.1953 6.13672 32.5742 5.94141 33.332 5.94141Z" fill="#F9F9F9"/>
<path d="M48.5312 18.832C48.3359 18.8398 48.0469 18.8438 47.6641 18.8438C45.8672 18.8438 44.1719 18.6758 42.5781 18.3398C40.9922 18.0039 40.0547 17.6133 39.7656 17.168C39.6719 17.0273 39.625 16.8516 39.625 16.6406C39.625 16.4297 39.875 16.0938 40.375 15.6328C40.875 15.1641 41.2188 14.9297 41.4062 14.9297C41.5938 14.9297 41.7852 15 41.9805 15.1406C42.1836 15.2734 42.4062 15.4375 42.6484 15.6328C42.8906 15.8281 43.1602 16.0234 43.457 16.2188C44.168 16.6875 45.0234 16.9219 46.0234 16.9219C46.4219 16.9219 46.7422 16.8203 46.9844 16.6172C47.2344 16.4141 47.3594 16.1602 47.3594 15.8555C47.3594 15.543 47.2539 15.2734 47.043 15.0469C46.8398 14.8203 46.5703 14.625 46.2344 14.4609C45.9062 14.2891 45.543 14.1211 45.1445 13.957C44.7461 13.7852 44.3438 13.6016 43.9375 13.4062C43.5391 13.2031 43.1719 12.9844 42.8359 12.75C42.0938 12.2266 41.7227 11.5781 41.7227 10.8047C41.7227 10.0234 41.957 9.34766 42.4258 8.77734C42.9023 8.20703 43.5 7.75 44.2188 7.40625C44.9375 7.0625 45.75 6.77344 46.6562 6.53906C48.25 6.14062 49.7539 5.94141 51.168 5.94141C52.5898 5.94141 53.9102 6.01562 55.1289 6.16406C56.3555 6.30469 57.1992 6.51562 57.6602 6.79688C57.7852 6.86719 57.8477 7.05469 57.8477 7.35938C57.8477 7.65625 57.7422 8.08594 57.5312 8.64844C57.3203 9.20312 57.0508 9.71875 56.7227 10.1953C56.4023 10.6641 56.1133 10.8984 55.8555 10.8984C55.7539 10.8984 55.668 10.8555 55.5977 10.7695C54.8555 9.87891 54.1328 9.19531 53.4297 8.71875C52.7344 8.23438 51.9766 7.99219 51.1562 7.99219C50.5312 7.99219 50.082 8.12109 49.8086 8.37891C49.543 8.62891 49.4102 8.89062 49.4102 9.16406C49.4102 9.4375 49.5586 9.69922 49.8555 9.94922C50.1602 10.1992 50.5352 10.4258 50.9805 10.6289C51.4336 10.832 51.9219 11.0703 52.4453 11.3438C52.9766 11.6094 53.4648 11.8828 53.9102 12.1641C54.3633 12.4375 54.7383 12.7852 55.0352 13.207C55.3398 13.6211 55.4922 14.1445 55.4922 14.7773C55.4922 15.4102 55.2617 16.0273 54.8008 16.6289C56.7383 16.2383 58.2539 15.7578 59.3477 15.1875C59.5352 15.0859 59.6953 15.0352 59.8281 15.0352C60.125 15.0352 60.2734 15.1836 60.2734 15.4805C60.2734 15.7305 60.1211 15.9609 59.8164 16.1719C59.5117 16.375 59.0078 16.625 58.3047 16.9219C57.6016 17.2109 56.7656 17.5039 55.7969 17.8008C53.5391 18.4883 51.1172 18.832 48.5312 18.832Z" fill="#F9F9F9"/>
<path d="M72.8125 6.28125L77.3945 6.15234C77.5977 6.15234 77.75 6.21484 77.8516 6.33984C77.9531 6.45703 78.0039 6.58984 78.0039 6.73828C78.0039 7.30078 77.8164 7.84766 77.4414 8.37891C77.0742 8.90234 76.6016 9.36328 76.0234 9.76172C75.4453 10.1602 74.7695 10.5312 73.9961 10.875C72.6055 11.4922 71.0977 11.9688 69.4727 12.3047C70.582 12.1406 71.5508 12.0586 72.3789 12.0586C74.3633 12.0586 75.3555 12.6797 75.3555 13.9219C75.3555 14.1172 75.3047 14.4102 75.2031 14.8008C75.1016 15.1836 75.0508 15.4922 75.0508 15.7266C75.0508 16.2266 75.3008 16.4766 75.8008 16.4766C76.168 16.4766 76.6953 16.3438 77.3828 16.0781C78.0781 15.8047 78.6133 15.5625 78.9883 15.3516C79.3633 15.1406 79.6133 15.0352 79.7383 15.0352C79.8711 15.0352 79.9883 15.0781 80.0898 15.1641C80.1914 15.2422 80.2422 15.3867 80.2422 15.5977C80.2422 15.8008 80.0742 16.0234 79.7383 16.2656C78.5977 17.0703 77.2305 17.7031 75.6367 18.1641C74.043 18.6172 72.6133 18.8438 71.3477 18.8438C70.0898 18.8438 69.2383 18.7148 68.793 18.457C68.3477 18.207 68.125 17.7891 68.125 17.2031C68.125 16.9062 68.207 16.4531 68.3711 15.8438C68.5352 15.2266 68.6172 14.7383 68.6172 14.3789C68.6172 13.3398 67.9961 12.7656 66.7539 12.6562C65.8164 15.2188 65.3164 17.0156 65.2539 18.0469C65.2383 18.3359 65.0312 18.4805 64.6328 18.4805L58.5977 18.6094C58.5117 18.6094 58.4141 18.5547 58.3047 18.4453C58.2031 18.3438 58.1523 18.2148 58.1523 18.0586C58.1523 17.9023 58.4023 17.1172 58.9023 15.7031C59.4102 14.2891 59.9648 12.7539 60.5664 11.0977C61.1758 9.44141 61.7305 7.71875 62.2305 5.92969C62.7383 4.14062 62.9922 2.80859 62.9922 1.93359L62.9805 1.60547C62.9805 1.21484 63.3594 1.01953 64.1172 1.01953L69.4844 0.984375C69.6641 0.984375 69.8086 1.04297 69.918 1.16016C70.0352 1.26953 70.0938 1.39062 70.0938 1.52344C70.0938 2.19531 69.7578 3.62109 69.0859 5.80078C68.4141 7.98047 67.7734 9.89453 67.1641 11.543C68.5703 11.1758 69.6758 10.5977 70.4805 9.80859C71.2852 9.01953 71.6875 8.1875 71.6875 7.3125L71.6758 6.86719C71.6758 6.47656 72.0547 6.28125 72.8125 6.28125Z" fill="#F9F9F9"/>
<circle cx="84.5" cy="15.875" r="2.5" fill="#0CCE84"/>
</svg>
